<mxfile host="app.diagrams.net" modified="2021-07-06T13:31:18.233Z" agent="5.0 (Windows NT 10.0; Win64; x64) AppleWebKit/537.36 (KHTML, like Gecko) Chrome/91.0.4472.114 Safari/537.36 OPR/77.0.4054.172" etag="PRhcRZPVBTXSC7Uk9FTz" version="14.8.4" type="github">
  <diagram name="Pembayaran" id="e7e014a7-5840-1c2e-5031-d8a46d1fe8dd">
    <mxGraphModel dx="828" dy="483" grid="1" gridSize="10" guides="1" tooltips="1" connect="1" arrows="1" fold="1" page="1" pageScale="1" pageWidth="1400" pageHeight="850" background="none" math="0" shadow="0">
      <root>
        <mxCell id="0" />
        <mxCell id="1" parent="0" />
        <mxCell id="2" value="Staff Klinik" style="swimlane;whiteSpace=wrap" parent="1" vertex="1">
          <mxGeometry x="150" y="128" width="290" height="602" as="geometry" />
        </mxCell>
        <mxCell id="5" value="" style="ellipse;shape=startState;fillColor=#000000;strokeColor=#1C0000;" parent="2" vertex="1">
          <mxGeometry x="100" y="40" width="30" height="30" as="geometry" />
        </mxCell>
        <mxCell id="6" value="" style="edgeStyle=elbowEdgeStyle;elbow=horizontal;verticalAlign=bottom;endArrow=open;endSize=8;strokeColor=#FF0000;endFill=1;rounded=0" parent="2" source="5" target="7" edge="1">
          <mxGeometry x="100" y="40" as="geometry">
            <mxPoint x="115" y="110" as="targetPoint" />
          </mxGeometry>
        </mxCell>
        <mxCell id="7" value="Periksa Surat&#xa;Hasil Diagnose" style="" parent="2" vertex="1">
          <mxGeometry x="60" y="92" width="110" height="50" as="geometry" />
        </mxCell>
        <mxCell id="8" value="Mengambil Obat" style="" parent="2" vertex="1">
          <mxGeometry x="60" y="162" width="110" height="50" as="geometry" />
        </mxCell>
        <mxCell id="9" value="" style="endArrow=open;strokeColor=#FF0000;endFill=1;rounded=0" parent="2" source="7" target="8" edge="1">
          <mxGeometry relative="1" as="geometry" />
        </mxCell>
        <mxCell id="10" value="Kalkulasi&#xa;Pembayaraan" style="" parent="2" vertex="1">
          <mxGeometry x="60" y="232" width="110" height="50" as="geometry" />
        </mxCell>
        <mxCell id="11" value="" style="endArrow=open;strokeColor=#FF0000;endFill=1;rounded=0" parent="2" source="8" target="10" edge="1">
          <mxGeometry relative="1" as="geometry" />
        </mxCell>
        <mxCell id="PHZZednUbYTorDqICEP5-44" value="Menerima &#xa;Pembayaran" style="" parent="2" vertex="1">
          <mxGeometry x="60" y="382" width="110" height="50" as="geometry" />
        </mxCell>
        <mxCell id="PHZZednUbYTorDqICEP5-45" value="Menyerahkan Obat dan&#xa;Â Kwintasi Pembayaran" style="" parent="2" vertex="1">
          <mxGeometry x="37.75" y="462" width="154.5" height="50" as="geometry" />
        </mxCell>
        <mxCell id="PHZZednUbYTorDqICEP5-46" value="" style="endArrow=open;strokeColor=#FF0000;endFill=1;rounded=0;startArrow=none;exitX=0.5;exitY=1;exitDx=0;exitDy=0;entryX=0.5;entryY=0;entryDx=0;entryDy=0;" parent="2" source="10" target="PHZZednUbYTorDqICEP5-43" edge="1">
          <mxGeometry relative="1" as="geometry">
            <mxPoint x="114.5" y="342" as="sourcePoint" />
            <mxPoint x="115" y="382" as="targetPoint" />
          </mxGeometry>
        </mxCell>
        <mxCell id="PHZZednUbYTorDqICEP5-48" value="" style="endArrow=classic;html=1;strokeColor=#FF3333;exitX=0.5;exitY=1;exitDx=0;exitDy=0;entryX=0.5;entryY=0;entryDx=0;entryDy=0;" parent="2" source="PHZZednUbYTorDqICEP5-44" target="PHZZednUbYTorDqICEP5-45" edge="1">
          <mxGeometry width="50" height="50" relative="1" as="geometry">
            <mxPoint x="310" y="562" as="sourcePoint" />
            <mxPoint x="360" y="512" as="targetPoint" />
          </mxGeometry>
        </mxCell>
        <mxCell id="PHZZednUbYTorDqICEP5-54" value="Start" style="text;html=1;strokeColor=none;fillColor=none;align=center;verticalAlign=middle;whiteSpace=wrap;rounded=0;" parent="2" vertex="1">
          <mxGeometry x="50" y="32" width="40" height="20" as="geometry" />
        </mxCell>
        <mxCell id="PHZZednUbYTorDqICEP5-43" value="Membuat&#xa;Kwintasi" style="" parent="2" vertex="1">
          <mxGeometry x="60" y="302" width="110" height="50" as="geometry" />
        </mxCell>
        <mxCell id="3" value="Pasien" style="swimlane;whiteSpace=wrap" parent="1" vertex="1">
          <mxGeometry x="440" y="128" width="280" height="602" as="geometry" />
        </mxCell>
        <mxCell id="15" value="Membayar&#xa;Biaya Pembayaran" style="" parent="3" vertex="1">
          <mxGeometry x="95.49" y="302" width="110" height="50" as="geometry" />
        </mxCell>
        <mxCell id="16" value="Menerima Obat&#xa;Dan Kwintasi Pembayaran" style="" parent="3" vertex="1">
          <mxGeometry x="64.11999999999999" y="462" width="172.75" height="50" as="geometry" />
        </mxCell>
        <mxCell id="13" value="" style="ellipse;shape=startState;fillColor=#000000;strokeColor=#1C0000;" parent="3" vertex="1">
          <mxGeometry x="135.49" y="562" width="30" height="30" as="geometry" />
        </mxCell>
        <mxCell id="PHZZednUbYTorDqICEP5-55" value="Stop" style="text;html=1;strokeColor=none;fillColor=none;align=center;verticalAlign=middle;whiteSpace=wrap;rounded=0;" parent="3" vertex="1">
          <mxGeometry x="175.5" y="572" width="40" height="20" as="geometry" />
        </mxCell>
        <mxCell id="HqK9KAX3EPINP-Dou5Jw-16" value="" style="ellipse;whiteSpace=wrap;html=1;aspect=fixed;fillColor=none;" vertex="1" parent="3">
          <mxGeometry x="130.49" y="557" width="40" height="40" as="geometry" />
        </mxCell>
        <mxCell id="PHZZednUbYTorDqICEP5-53" value="" style="endArrow=classic;html=1;strokeColor=#FF3333;" parent="3" source="16" target="HqK9KAX3EPINP-Dou5Jw-16" edge="1">
          <mxGeometry width="50" height="50" relative="1" as="geometry">
            <mxPoint x="15.5" y="562" as="sourcePoint" />
            <mxPoint x="150" y="552" as="targetPoint" />
          </mxGeometry>
        </mxCell>
        <mxCell id="PHZZednUbYTorDqICEP5-49" value="" style="endArrow=classic;html=1;strokeColor=#FF3333;entryX=0;entryY=0.5;entryDx=0;entryDy=0;exitX=1;exitY=0.5;exitDx=0;exitDy=0;" parent="1" source="PHZZednUbYTorDqICEP5-43" target="15" edge="1">
          <mxGeometry width="50" height="50" relative="1" as="geometry">
            <mxPoint x="460" y="690" as="sourcePoint" />
            <mxPoint x="510" y="640" as="targetPoint" />
          </mxGeometry>
        </mxCell>
        <mxCell id="PHZZednUbYTorDqICEP5-50" value="" style="endArrow=classic;html=1;strokeColor=#FF3333;entryX=1;entryY=0.5;entryDx=0;entryDy=0;exitX=0.5;exitY=1;exitDx=0;exitDy=0;" parent="1" source="15" target="PHZZednUbYTorDqICEP5-44" edge="1">
          <mxGeometry width="50" height="50" relative="1" as="geometry">
            <mxPoint x="460" y="690" as="sourcePoint" />
            <mxPoint x="510" y="640" as="targetPoint" />
            <Array as="points">
              <mxPoint x="595" y="540" />
            </Array>
          </mxGeometry>
        </mxCell>
        <mxCell id="PHZZednUbYTorDqICEP5-51" value="" style="endArrow=classic;html=1;strokeColor=#FF3333;entryX=0;entryY=0.5;entryDx=0;entryDy=0;exitX=1;exitY=0.5;exitDx=0;exitDy=0;" parent="1" source="PHZZednUbYTorDqICEP5-45" target="16" edge="1">
          <mxGeometry width="50" height="50" relative="1" as="geometry">
            <mxPoint x="460" y="690" as="sourcePoint" />
            <mxPoint x="500" y="720" as="targetPoint" />
          </mxGeometry>
        </mxCell>
      </root>
    </mxGraphModel>
  </diagram>
</mxfile>
